<?xml version="1.0" standalone="no"?>
<!DOCTYPE svg PUBLIC "-//W3C//DTD SVG 20010904//EN"
 "http://www.w3.org/TR/2001/REC-SVG-20010904/DTD/svg10.dtd">
<svg version="1.0" xmlns="http://www.w3.org/2000/svg"
 width="1024.000000pt" height="1024.000000pt" viewBox="0 0 1024.000000 1024.000000"
 preserveAspectRatio="xMidYMid meet">

<g transform="translate(0.000000,1024.000000) scale(0.100000,-0.100000)"
fill="#000000" stroke="none">
<path d="M4866 8939 c-386 -23 -755 -101 -1111 -234 -677 -254 -1215 -641
-1659 -1195 -483 -601 -767 -1279 -848 -2025 -17 -158 -17 -672 0 -830 33
-301 97 -594 189 -865 l28 -82 217 -2 c189 -1 217 1 213 14 -93 311 -141 599
-151 900 -8 239 17 663 37 643 5 -5 5 -23 0 -40 -12 -41 -4 -70 21 -76 26 -7
42 31 22 54 -16 18 -19 49 -5 49 5 0 12 -10 14 -22 3 -13 3 4 1 37 -2 33 -1
52 2 43 7 -22 20 -23 28 -3 3 9 18 15 34 15 28 0 62 26 62 47 0 6 7 16 16 24
13 10 17 10 24 -1 13 -21 50 48 50 93 0 20 5 37 10 37 6 0 10 13 10 29 0 40
11 91 20 91 3 0 7 -6 8 -12 0 -7 5 -26 10 -43 9 -28 10 -26 17 33 8 66 27 83
45 40 8 -22 9 -22 9 5 1 16 -3 26 -9 22 -5 -3 -10 -1 -10 4 0 10 5 12 38 15
17 2 31 26 25 43 -3 7 2 13 12 13 10 0 13 -5 9 -12 -4 -7 -3 -8 4 -4 6 4 9 12
7 19 -7 18 42 70 59 64 15 -6 29 7 32 28 0 6 2 16 2 23 1 6 7 12 13 12 8 0 8
-5 -1 -15 -7 -8 -9 -15 -4 -15 10 0 54 65 54 80 0 5 5 10 10 10 7 0 7 -8 -1
-22 -12 -23 -12 -23 9 -4 18 15 24 17 37 6 13 -11 14 -10 9 4 -3 9 -14 16 -23
17 -9 0 -11 3 -4 5 7 3 28 -5 47 -19 34 -22 35 -24 18 -42 -16 -18 -16 -18 2
-4 15 11 20 11 23 1 3 -6 9 -9 14 -6 6 3 19 -2 29 -11 15 -13 23 -14 39 -5 18
9 21 8 21 -10 0 -11 3 -19 8 -19 26 4 40 -6 56 -41 13 -30 23 -40 41 -40 12 0
25 -7 28 -14 4 -10 25 -16 59 -19 l53 -3 -58 -2 c-71 -2 -68 -22 4 -22 48 0
49 -1 49 -30 0 -28 2 -30 40 -30 33 0 40 3 40 20 0 16 7 20 34 20 25 0 36 5
41 19 7 25 23 28 136 30 87 1 92 0 69 -14 -25 -14 -25 -14 10 -8 82 15 88 19
38 27 -27 4 -48 12 -48 18 0 6 10 8 23 4 12 -3 33 -9 46 -12 18 -5 22 -4 16 5
-5 9 -2 12 11 9 11 -2 18 -10 16 -17 -1 -7 2 -10 7 -6 6 3 7 13 4 22 -5 13 1
15 48 10 30 -3 48 -3 42 -1 -27 11 -11 22 22 17 29 -5 34 -3 29 10 -9 25 58
33 115 14 40 -14 41 -16 11 -11 -20 3 -30 2 -23 -3 7 -5 -38 -18 -110 -32 -67
-13 -126 -27 -132 -31 -20 -15 -146 -50 -157 -44 -7 4 -8 3 -4 -5 4 -6 0 -14
-11 -17 -10 -3 -56 -25 -103 -47 -47 -23 -89 -40 -93 -39 -5 1 -6 -2 -3 -7 3
-5 -8 -15 -24 -23 -16 -8 -74 -51 -129 -96 -275 -228 -468 -559 -488 -838 -5
-73 -3 -87 20 -137 26 -57 71 -97 110 -97 48 0 -9 -165 -82 -235 -23 -22 -83
-71 -133 -110 -149 -114 -193 -203 -170 -348 6 -39 9 -73 8 -75 -2 -1 -97 2
-212 8 -287 14 -394 13 -394 -2 0 -7 42 -96 93 -198 92 -185 92 -185 127 -187
86 -6 303 -36 382 -53 91 -20 186 -60 214 -92 17 -17 9 -18 -232 -20 -137 -1
-259 -1 -271 0 -22 1 -22 -1 -9 -26 8 -15 30 -48 48 -74 18 -25 64 -91 102
-145 93 -132 135 -183 289 -351 387 -424 831 -730 1365 -941 349 -137 638
-212 990 -257 189 -24 636 -29 822 -10 779 82 1452 350 2055 818 263 203 731
714 709 771 -3 8 -1 18 5 22 7 4 9 -1 5 -12 -4 -16 -4 -16 8 1 7 11 25 33 39
50 22 27 99 142 99 149 0 4 -1903 -2 -1915 -7 -7 -2 -27 -33 -45 -68 -108
-207 -296 -424 -505 -581 -163 -122 -452 -252 -690 -311 -169 -41 -472 -71
-645 -62 -325 16 -570 67 -840 173 -357 141 -720 385 -980 659 l-75 79 535 3
534 2 126 -34 c205 -56 296 -70 475 -70 245 1 426 42 622 143 l93 48 47 -24
c84 -41 179 -54 394 -54 108 0 209 3 225 7 82 20 146 70 184 144 23 43 17 131
-14 193 -35 72 -91 121 -190 167 -83 39 -109 60 -141 117 -18 31 -18 34 3 127
27 116 52 324 52 427 l0 76 139 7 c173 8 266 30 396 96 92 46 106 50 170 50
127 0 206 57 275 197 66 136 54 170 -101 295 -85 68 -98 83 -109 123 -16 58
-95 147 -159 180 -26 13 -65 39 -86 59 -83 74 -179 113 -357 145 -126 23 -170
37 -316 107 -52 24 -97 44 -102 44 -4 0 -10 17 -14 38 -3 20 -6 455 -6 966 0
924 0 929 -21 962 -11 19 -29 39 -39 44 -11 6 -137 10 -308 10 l-289 0 -7 292
c-3 160 -4 293 -1 296 2 3 558 5 1235 6 l1230 1 0 -297 0 -298 -168 0 c-154 0
-171 -2 -212 -22 -26 -14 -57 -41 -75 -66 l-30 -44 -2 -911 c-3 -969 0 -1074
25 -1074 8 0 17 9 20 19 5 22 22 24 22 3 0 -19 7 -19 26 0 11 10 11 15 3 15
-6 0 0 9 14 20 14 11 30 20 36 20 6 0 15 9 21 21 7 11 26 34 43 49 29 26 33
28 44 13 7 -9 16 -13 20 -9 4 4 2 11 -5 15 -21 13 0 61 26 61 5 0 15 7 22 15
9 11 16 13 24 5 12 -12 29 -14 22 -1 -11 17 29 41 59 35 25 -4 27 -3 15 11 -7
8 -9 19 -5 23 4 4 10 1 12 -5 3 -7 9 -13 15 -13 6 0 8 6 6 13 -6 16 35 54 53
48 11 -3 11 -1 -1 14 -14 17 -13 17 9 10 19 -6 23 -4 18 8 -3 9 1 18 9 21 10
4 12 2 8 -6 -4 -6 15 11 42 38 27 27 47 53 46 57 -1 5 2 6 7 3 11 -7 25 12 26
33 0 8 7 16 15 18 13 4 13 3 0 -6 -13 -9 -11 -13 10 -28 14 -10 28 -17 33 -15
4 1 7 -3 7 -9 0 -6 6 -9 14 -6 7 3 19 0 25 -6 8 -8 11 -7 11 3 0 7 3 10 6 7 4
-4 -1 -19 -11 -34 l-18 -28 27 24 26 24 0 -25 c0 -14 9 -33 20 -43 11 -10 17
-21 14 -26 -2 -5 4 -17 16 -29 11 -11 17 -20 14 -20 -3 0 8 -17 25 -37 16 -20
27 -41 24 -47 -4 -6 1 -5 10 2 14 12 15 11 8 -16 -5 -16 -5 -35 -1 -42 5 -8 9
-5 13 10 5 19 8 20 26 8 12 -7 24 -28 27 -46 4 -18 10 -35 16 -38 5 -4 5 -11
-1 -18 -18 -22 15 -56 55 -56 28 0 34 -4 34 -20 0 -17 6 -20 35 -18 33 2 35 4
35 40 l0 38 45 0 45 0 0 -40 0 -40 160 0 160 0 0 40 c0 22 -4 40 -10 40 -5 0
-10 18 -10 40 0 71 18 43 25 -40 6 -69 10 -80 26 -80 15 0 19 7 19 40 0 29 -4
40 -15 40 -10 0 -15 10 -15 28 0 15 -3 45 -5 67 -4 32 -3 36 5 20 9 -18 10
-17 5 5 -2 14 -5 36 -6 50 -1 24 -2 23 -10 -5 -7 -26 -8 -23 -4 14 2 24 -2 52
-8 62 -9 14 -7 25 6 51 10 19 15 23 12 11 -4 -12 1 -38 11 -58 9 -19 14 -42
10 -50 -3 -8 -1 -15 4 -15 9 0 26 -67 21 -84 -1 -5 2 -12 8 -15 5 -3 12 -26
15 -51 3 -25 12 -72 20 -105 8 -33 15 -81 16 -107 0 -26 7 -93 16 -150 14 -85
16 -155 11 -413 -6 -304 -17 -439 -53 -647 -10 -59 -21 -95 -27 -91 -6 3 -7 1
-3 -6 9 -14 -8 -99 -45 -220 -16 -51 -29 -95 -29 -97 0 -3 100 -3 222 -2 l221
3 29 85 c75 221 150 559 185 840 26 207 26 718 0 910 -95 702 -337 1292 -762
1856 -300 398 -692 756 -1077 986 -152 90 -405 216 -553 275 -430 171 -757
244 -1225 273 -180 11 -212 11 -404 -1z m-983 -1729 c46 -51 34 -140 -23 -173
-45 -27 -97 -22 -130 11 -56 57 -46 155 20 190 40 21 100 8 133 -28z m-1180
-601 c31 -17 37 -28 37 -73 0 -52 -22 -76 -71 -76 -50 0 -83 39 -75 89 10 62
56 88 109 60z m886 -103 c6 -7 10 -27 9 -43 -4 -50 -68 -38 -68 13 0 13 8 28
18 33 23 14 28 13 41 -3z m4075 -12 c9 -8 16 -31 16 -49 0 -42 -34 -69 -73
-60 -39 10 -63 85 -35 113 17 17 74 15 92 -4z m-3026 -370 c32 -22 29 -104 -5
-104 -8 0 -12 -4 -8 -9 3 -6 -7 -6 -26 -1 -20 6 -39 6 -53 -1 -19 -9 -19 -9
-4 4 11 9 14 18 7 28 -14 22 -11 61 8 81 20 22 51 23 81 2z m362 -249 c0 -220
0 -225 -21 -225 -11 0 -18 3 -16 8 3 4 -23 8 -58 10 -36 2 -66 -2 -70 -7 -3
-6 -25 -8 -53 -5 -33 4 -43 3 -33 -4 11 -8 2 -9 -30 -6 -34 4 -41 3 -29 -6 12
-9 6 -10 -25 -4 -22 4 -51 8 -65 9 -44 4 -46 7 -10 15 19 4 44 10 55 14 13 5
11 2 -5 -8 l-25 -15 28 -1 c16 0 30 7 33 15 4 8 16 15 28 15 17 0 19 -2 6 -11
-13 -9 -13 -10 0 -6 9 2 14 13 12 25 -3 19 -1 20 34 10 31 -8 39 -7 46 6 6 10
22 16 44 16 21 0 33 4 29 10 -6 9 8 14 28 11 4 0 7 4 7 9 0 6 11 10 24 10 23
0 24 4 30 83 11 153 14 163 11 37 -2 -87 0 -110 5 -75 5 28 9 105 9 173 1 67
3 122 6 122 3 0 5 -101 5 -225z m2308 108 c-6 -7 -12 -13 -13 -13 -2 0 -5 6
-8 13 -3 7 3 13 14 13 13 0 15 -3 7 -13z m889 -25 c-3 -8 -6 -5 -6 6 -1 11 2
17 5 13 3 -3 4 -12 1 -19z m20 -28 c0 -19 -4 -27 -10 -21 -5 5 -6 18 -2 30 9
29 12 26 12 -9z m-967 -30 c-11 -11 -23 -20 -27 -20 -3 0 2 9 12 20 10 11 22
20 27 20 4 0 -1 -9 -12 -20z m-5339 -17 c-12 -20 -14 -14 -5 12 4 9 9 14 11
11 3 -2 0 -13 -6 -23z m1669 -12 c24 -7 24 -7 -9 -14 -34 -7 -51 -3 -51 14 0
10 23 10 60 0z m580 -6 c0 -16 -54 -21 -100 -8 l-25 7 25 7 c47 13 100 10 100
-6z m-627 -32 c-7 -2 -19 -2 -25 0 -7 3 -2 5 12 5 14 0 19 -2 13 -5z m74 1
c-3 -3 -12 -4 -19 -1 -8 3 -5 6 6 6 11 1 17 -2 13 -5z m64 -3 c-17 -11 0 -17
94 -30 33 -5 46 -9 29 -10 -33 -1 -143 17 -158 27 -5 3 -1 9 10 13 27 11 42
10 25 0z m262 2 c-7 -2 -19 -2 -25 0 -7 3 -2 5 12 5 14 0 19 -2 13 -5z m114 1
c-3 -3 -12 -4 -19 -1 -8 3 -5 6 6 6 11 1 17 -2 13 -5z m3471 -29 c0 -32 -9
-26 -12 9 -2 14 0 23 4 21 4 -3 8 -16 8 -30z m-4048 15 c12 -8 11 -10 -7 -10
-13 0 -23 5 -23 10 0 13 11 13 30 0z m615 -6 c30 -4 36 -3 25 6 -11 8 -8 9 15
4 39 -9 75 -33 75 -49 0 -14 61 -29 69 -18 9 13 51 15 51 4 0 -6 5 -11 11 -11
5 0 7 5 4 10 -7 12 -3 12 20 3 14 -5 12 -8 -11 -19 l-29 -13 30 5 c24 5 27 3
15 -6 -12 -9 -10 -11 12 -7 15 2 25 1 23 -3 -3 -4 15 -11 40 -14 25 -4 45 -12
45 -18 0 -5 -8 -7 -17 -4 -9 4 -55 16 -102 28 -64 16 -80 23 -65 29 14 6 10 8
-16 6 -45 -2 -190 23 -190 34 0 4 8 10 18 13 16 5 -37 -1 -88 -10 -14 -2 -19
-1 -12 2 25 12 11 19 -41 21 -36 1 -46 -1 -32 -7 18 -8 18 -9 -5 -9 -15 -1
-30 3 -35 8 -6 5 -19 12 -30 15 -11 3 -4 3 15 1 19 -2 44 0 55 5 19 9 50 7
150 -6z m-2191 -57 c-6 -18 -7 -18 -15 -4 -5 9 -6 29 -3 44 l7 27 9 -24 c5
-12 6 -32 2 -43z m5756 -12 c0 -8 -4 -17 -10 -20 -5 -3 -10 0 -10 7 0 11 -2
10 -9 0 -6 -11 -10 -10 -15 4 -6 15 -9 16 -16 4 -6 -9 -5 -17 2 -21 6 -4 6 -9
1 -12 -6 -4 -22 7 -38 23 l-27 28 61 1 c46 0 61 -4 61 -14z m-3182 -2 c-10 -2
-28 -2 -40 0 -13 2 -5 4 17 4 22 1 32 -1 23 -4z m-2297 -26 c-10 -9 -11 -8 -5
6 3 10 9 15 12 12 3 -3 0 -11 -7 -18z m39 3 c0 -5 -2 -10 -4 -10 -3 0 -8 5
-11 10 -3 6 -1 10 4 10 6 0 11 -4 11 -10z m2270 0 c0 -5 -4 -10 -9 -10 -6 0
-13 5 -16 10 -3 6 1 10 9 10 9 0 16 -4 16 -10z m191 -10 l44 -20 -37 0 c-20 0
-40 5 -43 10 -3 6 -17 10 -31 10 -13 0 -24 5 -24 10 0 16 45 11 91 -10z m3013
-43 c-3 -9 -10 -17 -15 -17 -11 0 -12 34 -2 43 11 12 24 -8 17 -26z m-3167 7
c-3 -3 -12 -4 -19 -1 -8 3 -5 6 6 6 11 1 17 -2 13 -5z m90 0 c-3 -3 -12 -4
-19 -1 -8 3 -5 6 6 6 11 1 17 -2 13 -5z m3608 -24 c7 -32 -1 -54 -16 -45 -12
8 -12 75 0 75 5 0 12 -13 16 -30z m-6355 1 c0 -6 -4 -13 -10 -16 -5 -3 -10 1
-10 9 0 9 5 16 10 16 6 0 10 -4 10 -9z m-30 -98 c-10 -16 -11 -15 -6 7 3 14 6
34 7 45 1 13 3 11 6 -7 2 -15 -1 -35 -7 -45z m6250 57 c0 -5 -18 -10 -40 -10
-22 0 -40 5 -40 10 0 6 18 10 40 10 22 0 40 -4 40 -10z m-390 -31 c0 -5 -4 -9
-10 -9 -5 0 -10 7 -10 16 0 8 5 12 10 9 6 -3 10 -10 10 -16z m-3600 -14 c47
-9 164 -38 262 -66 237 -67 267 -71 385 -53 115 17 232 18 305 3 67 -14 176
-64 274 -125 113 -71 201 -102 394 -139 152 -30 187 -41 265 -80 163 -83 195
-110 237 -196 31 -64 50 -88 115 -144 43 -37 88 -72 101 -78 29 -14 28 -28 -7
-61 -24 -23 -29 -35 -24 -57 5 -26 2 -28 -32 -35 -46 -8 -152 1 -222 20 -44
12 -53 12 -53 1 0 -8 10 -17 22 -21 21 -6 21 -7 2 -21 -108 -82 -282 -121
-454 -102 -230 25 -352 102 -502 315 -64 90 -145 187 -168 202 -19 12 -19 9 5
-38 67 -132 150 -438 175 -645 40 -335 85 -512 176 -698 91 -184 103 -196 224
-236 117 -38 165 -84 139 -132 -17 -32 -52 -39 -207 -39 -266 0 -349 25 -463
139 -165 166 -429 529 -514 706 -75 156 -92 232 -161 720 -9 66 -20 129 -24
140 -7 19 -8 18 -14 -5 -60 -249 -75 -392 -57 -566 6 -70 8 -130 4 -135 -17
-16 -121 -51 -191 -65 -87 -17 -215 -18 -298 -4 -74 13 -204 51 -204 59 0 3 7
41 15 84 38 200 -3 443 -100 593 -51 78 -59 86 -50 49 15 -65 32 -254 29 -325
-13 -260 -81 -446 -212 -578 -73 -72 -113 -98 -307 -195 -93 -47 -180 -95
-192 -108 -59 -64 -50 -134 22 -168 25 -12 50 -21 57 -21 20 0 97 -50 108 -70
17 -32 11 -59 -17 -77 -22 -15 -57 -18 -225 -21 l-199 -4 -44 45 c-46 48 -164
275 -185 356 -23 87 -4 117 136 219 130 95 196 180 240 309 25 72 27 94 31
288 l5 210 -32 -62 c-42 -84 -105 -135 -125 -103 -16 27 36 212 92 327 184
377 578 647 1023 702 105 13 339 6 440 -14z m-2271 -87 c-1 -29 -1 -64 0 -78
2 -23 3 -23 11 -5 6 15 7 12 7 -16 -1 -28 -4 -34 -13 -25 -6 7 -14 21 -17 32
-4 17 -5 17 -6 -3 0 -12 4 -25 9 -28 12 -7 14 -85 3 -85 -19 1 -29 18 -31 50
-2 27 0 32 9 20 8 -12 10 -10 5 10 -6 24 13 180 22 180 2 0 3 -24 1 -52z m31
-18 c0 -5 -4 -10 -10 -10 -5 0 -10 -7 -10 -17 0 -9 -3 -14 -6 -10 -8 8 5 47
17 47 5 0 9 -4 9 -10z m-30 -279 c0 -6 -4 -11 -10 -11 -5 0 -10 4 -10 9 0 5
-3 18 -7 28 -6 17 -6 17 10 1 9 -9 17 -21 17 -27z m2529 -1253 c20 -49 91
-170 114 -196 l21 -22 -23 -65 c-30 -85 -38 -182 -19 -220 8 -15 39 -44 69
-64 93 -62 85 -68 -103 -69 -105 -1 -175 3 -198 11 -38 13 -72 63 -91 132 -18
64 -13 220 11 310 33 129 34 132 119 175 42 22 78 39 81 40 3 0 11 -15 19 -32z
m-384 -65 c-24 -63 -38 -161 -39 -265 -1 -65 -2 -118 -2 -118 -14 0 -74 34
-89 50 -32 35 -28 152 9 263 l30 87 49 0 c43 0 48 -2 42 -17z m-652 -214 c9
-40 15 -74 12 -77 -2 -3 -42 9 -87 26 -46 17 -91 32 -102 34 -12 2 9 18 60 44
44 23 84 42 89 43 6 0 18 -31 28 -70z m4190 -866 c-13 -2 -35 -2 -50 0 -16 2
-5 4 22 4 28 0 40 -2 28 -4z m175 0 c-26 -2 -71 -2 -100 0 -29 2 -8 3 47 3 55
0 79 -1 53 -3z"/>
<path d="M4058 5803 c7 -3 16 -2 19 1 4 3 -2 6 -13 5 -11 0 -14 -3 -6 -6z"/>
<path d="M7560 5739 c0 -5 5 -7 10 -4 6 3 10 8 10 11 0 2 -4 4 -10 4 -5 0 -10
-5 -10 -11z"/>
<path d="M5540 5108 c-128 -36 -133 -202 -7 -266 26 -14 49 -23 51 -21 2 2 -3
31 -11 65 -13 54 -13 64 1 97 12 31 20 37 45 37 22 0 28 -4 26 -17 -2 -10 -6
-33 -9 -52 l-6 -34 41 47 c22 25 47 46 55 46 46 0 -22 70 -93 96 -44 15 -47
15 -93 2z"/>
<path d="M6069 4900 c-35 -10 -69 -29 -69 -39 0 -10 92 -51 114 -51 9 0 23 11
31 24 30 45 -13 82 -76 66z"/>
<path d="M1801 5294 c0 -11 3 -14 6 -6 3 7 2 16 -1 19 -3 4 -6 -2 -5 -13z"/>
<path d="M7456 5832 c-3 -5 1 -15 8 -21 11 -10 14 -9 12 3 -3 21 -13 29 -20
18z"/>
<path d="M2598 5812 c9 -10 19 -17 21 -16 6 5 -20 34 -30 34 -5 0 -1 -8 9 -18z"/>
<path d="M2584 5790 c40 -61 58 -84 51 -65 -4 11 -8 26 -8 33 0 6 -4 12 -10
12 -5 0 -18 10 -29 23 l-20 22 16 -25z"/>
<path d="M3543 5803 c9 -2 25 -2 35 0 9 3 1 5 -18 5 -19 0 -27 -2 -17 -5z"/>
<path d="M2280 5789 c0 -5 5 -7 10 -4 6 3 10 8 10 11 0 2 -4 4 -10 4 -5 0 -10
-5 -10 -11z"/>
<path d="M3528 5783 c7 -3 16 -2 19 1 4 3 -2 6 -13 5 -11 0 -14 -3 -6 -6z"/>
<path d="M7119 5753 c-13 -16 -12 -17 4 -4 16 13 21 21 13 21 -2 0 -10 -8 -17
-17z"/>
<path d="M2705 5730 c3 -5 8 -10 11 -10 2 0 4 5 4 10 0 6 -5 10 -11 10 -5 0
-7 -4 -4 -10z"/>
<path d="M2658 5694 c6 -11 18 -26 26 -33 9 -8 14 -17 11 -20 -2 -4 2 -8 10
-8 20 0 20 -1 -21 43 -20 22 -32 30 -26 18z"/>
<path d="M2700 5697 c0 -9 4 -18 9 -21 5 -4 8 1 7 9 -3 21 -16 31 -16 12z"/>
<path d="M3093 5703 c9 -2 23 -2 30 0 6 3 -1 5 -18 5 -16 0 -22 -2 -12 -5z"/>
<path d="M7020 5691 c0 -6 5 -11 11 -11 5 0 7 -6 3 -12 -5 -9 -2 -9 9 1 9 7
17 16 17 19 0 3 -3 2 -7 -1 -3 -4 -12 -2 -20 4 -9 9 -13 8 -13 0z"/>
<path d="M3050 5660 c8 -5 20 -10 25 -10 6 0 3 5 -5 10 -8 5 -19 10 -25 10 -5
0 -3 -5 5 -10z"/>
<path d="M3040 5641 c0 -5 7 -11 15 -15 8 -3 15 -1 15 3 0 5 -7 11 -15 15 -8
3 -15 1 -15 -3z"/>
<path d="M6970 5641 c0 -10 19 -25 25 -20 1 2 -3 10 -11 17 -8 7 -14 8 -14 3z"/>
<path d="M2081 5590 c0 -8 4 -24 9 -35 5 -13 9 -14 9 -5 0 8 -4 24 -9 35 -5
13 -9 14 -9 5z"/>
<path d="M2744 5589 c-3 -6 -2 -15 3 -20 5 -5 9 -1 9 11 0 23 -2 24 -12 9z"/>
<path d="M2786 5587 c3 -8 -3 -23 -13 -33 -17 -17 -17 -18 0 -11 13 5 17 2 15
-10 -2 -9 3 -17 10 -19 7 -1 9 0 4 2 -5 3 -8 20 -6 39 1 19 -2 37 -7 40 -5 4
-6 0 -3 -8z"/>
<path d="M7609 5592 c-2 -15 3 -57 9 -66 3 -6 6 -20 7 -33 0 -12 7 -28 14 -35
11 -11 13 -10 6 0 -4 8 -8 26 -10 40 -1 15 -6 41 -10 57 -5 21 -4 27 3 20 5
-5 12 -19 15 -30 3 -11 5 -5 4 14 -1 24 -7 35 -19 37 -10 1 -18 -1 -19 -4z"/>
<path d="M7651 5504 c0 -11 3 -14 6 -6 3 7 2 16 -1 19 -3 4 -6 -2 -5 -13z"/>
<path d="M2082 5470 c0 -19 2 -27 5 -17 2 9 2 25 0 35 -3 9 -5 1 -5 -18z"/>
<path d="M2101 5474 c0 -11 3 -14 6 -6 3 7 2 16 -1 19 -3 4 -6 -2 -5 -13z"/>
<path d="M2840 5480 c-8 -5 -10 -10 -5 -10 6 0 17 5 25 10 8 5 11 10 5 10 -5
0 -17 -5 -25 -10z"/>
<path d="M7671 5464 c0 -11 3 -14 6 -6 3 7 2 16 -1 19 -3 4 -6 -2 -5 -13z"/>
<path d="M2091 5404 c0 -11 3 -14 6 -6 3 7 2 16 -1 19 -3 4 -6 -2 -5 -13z"/>
<path d="M6656 5332 c-3 -5 1 -9 9 -9 8 0 12 4 9 9 -3 4 -7 8 -9 8 -2 0 -6 -4
-9 -8z"/>
<path d="M7680 5276 c0 -2 8 -10 18 -17 15 -13 16 -12 3 4 -13 16 -21 21 -21
13z"/>
<path d="M7726 5271 c-3 -5 2 -15 12 -22 15 -12 16 -12 5 2 -7 9 -10 19 -6 22
3 4 4 7 0 7 -3 0 -8 -4 -11 -9z"/>
<path d="M7789 5183 c-13 -16 -12 -17 4 -4 16 13 21 21 13 21 -2 0 -10 -8 -17
-17z"/>
<path d="M7820 5127 c0 -2 15 -16 33 -33 l32 -29 -29 33 c-28 30 -36 37 -36
29z"/>
<path d="M6586 3568 c-7 -51 -3 -78 12 -78 7 0 10 -4 7 -10 -3 -5 -2 -10 4
-10 5 0 12 6 14 13 4 10 6 10 6 0 1 -9 25 -13 84 -13 56 0 77 3 67 10 -10 6
32 9 125 8 l140 -2 -115 -5 c-63 -4 247 -7 690 -9 443 -1 831 0 862 4 53 5 57
8 47 25 -7 15 -6 19 5 19 8 0 18 -10 22 -22 l6 -21 13 23 c13 25 9 54 -6 44
-12 -7 -11 7 1 26 8 13 10 13 10 -2 0 -29 16 -28 27 3 l11 29 -1013 0 -1014 0
-5 -32z m34 -48 c0 -11 -4 -20 -9 -20 -5 0 -7 9 -4 20 3 11 7 20 9 20 2 0 4
-9 4 -20z m34 12 c-6 -4 -14 -14 -17 -22 -4 -10 -6 -8 -6 8 -1 15 5 22 17 22
10 0 13 -3 6 -8z m524 -19 c-10 -2 -28 -2 -40 0 -13 2 -5 4 17 4 22 1 32 -1
23 -4z m15 -20 c-13 -2 -35 -2 -50 0 -16 2 -5 4 22 4 28 0 40 -2 28 -4z m370
0 c-7 -2 -19 -2 -25 0 -7 3 -2 5 12 5 14 0 19 -2 13 -5z m-845 -10 c-16 -2
-40 -2 -55 0 -16 2 -3 4 27 4 30 0 43 -2 28 -4z"/>
<path d="M7511 3340 l-984 -5 -23 -70 c-13 -38 -23 -70 -24 -70 0 0 436 -1
969 -3 l969 -3 41 77 c23 42 40 77 39 78 -2 0 -446 -1 -987 -4z"/>
</g>
</svg>
